<?xml version="1.0" standalone="no"?>
<!DOCTYPE svg PUBLIC "-//W3C//DTD SVG 20010904//EN"
 "http://www.w3.org/TR/2001/REC-SVG-20010904/DTD/svg10.dtd">
<svg version="1.0" xmlns="http://www.w3.org/2000/svg"
 width="1024.000000pt" height="330.000000pt" viewBox="0 0 1024.000000 330.000000"
 preserveAspectRatio="xMidYMid meet">

<g transform="translate(0.000000,330.000000) scale(0.100000,-0.100000)"
fill="#000000" stroke="none">
<path d="M5320 2571 l0 -299 -387 -5 c-410 -4 -502 -13 -636 -58 -327 -110
-443 -370 -424 -954 12 -352 64 -517 204 -645 97 -89 245 -144 453 -170 51 -6
345 -10 737 -10 l653 0 0 1220 0 1220 -300 0 -300 0 0 -299z m0 -1216 l0 -425
-327 0 c-346 0 -384 4 -440 46 -60 45 -68 88 -68 364 0 261 5 295 51 356 26
35 74 61 137 73 23 5 178 9 345 10 l302 1 0 -425z"/>
<path d="M430 1350 l0 -920 300 0 300 0 0 920 0 920 -300 0 -300 0 0 -920z"/>
<path d="M1490 1448 c0 -453 3 -867 7 -921 l6 -97 299 0 298 0 0 676 0 676
298 -4 c322 -5 346 -8 402 -61 62 -59 63 -72 68 -710 l4 -577 305 0 306 0 -6
593 c-3 333 -11 627 -17 672 -50 370 -167 497 -510 556 -41 7 -320 13 -762 16
l-698 5 0 -824z"/>
<path d="M6941 2259 c-169 -13 -291 -44 -376 -93 -60 -36 -132 -118 -166 -191
-72 -153 -89 -354 -89 -1052 l0 -493 305 0 305 0 0 523 c0 287 4 559 10 605
21 183 85 222 361 222 l129 0 0 245 0 245 -192 -1 c-106 -1 -235 -5 -287 -10z"/>
<path d="M8445 2259 c-386 -40 -574 -180 -645 -480 -53 -227 -53 -641 0 -868
57 -240 203 -382 450 -440 158 -37 239 -41 907 -41 l653 0 0 920 0 920 -642
-1 c-354 -1 -679 -5 -723 -10z m765 -904 l0 -425 -327 0 c-346 0 -384 4 -440
46 -60 45 -68 88 -68 364 0 261 5 295 51 356 26 35 74 61 137 73 23 5 178 9
345 10 l302 1 0 -425z"/>
</g>
</svg>
